<svg width="24" height="24" viewBox="0 0 24 24" fill="none" xmlns="http://www.w3.org/2000/svg">
<path fill-rule="evenodd" clip-rule="evenodd" d="M17.354 22.2322C15.3339 21.7261 11.1984 20.2992 7.44927 16.5501C3.70016 12.801 2.27331 8.66553 1.76718 6.64544C1.47632 5.48453 2.00009 4.36428 2.8882 3.72991L5.21645 2.06687C6.57873 1.09382 8.47383 1.42401 9.42675 2.80045L10.8925 4.9177C11.5147 5.81644 11.3001 7.04824 10.4106 7.68359L9.24185 8.51843C9.41874 9.19504 9.9689 10.5845 11.6919 12.3075C13.4149 14.0305 14.8044 14.5806 15.481 14.7575L16.3158 13.5887C16.9512 12.6993 18.183 12.4846 19.0817 13.1068L21.199 14.5726C22.5754 15.5256 22.9056 17.4206 21.9325 18.7829L20.2695 21.1112C19.6351 21.9993 18.5149 22.5231 17.354 22.2322ZM8.86348 15.1359C12.2729 18.5453 16.0353 19.84 17.84 20.2922C18.1038 20.3582 18.4227 20.2557 18.642 19.9487L20.3051 17.6204C20.6294 17.1664 20.5194 16.5347 20.0605 16.217L17.9433 14.7512L17.0474 16.0055C16.6813 16.5181 16.0042 16.9201 15.2158 16.75C14.2318 16.5377 12.4128 15.8568 10.2777 13.7217C8.14261 11.5866 7.4617 9.76764 7.24938 8.78364C7.07928 7.99524 7.48132 7.31815 7.9939 6.95202L9.24815 6.05612L7.78236 3.93887C7.46472 3.48005 6.83302 3.36999 6.37893 3.69434L4.05068 5.35738C3.74364 5.57669 3.64113 5.89559 3.70722 6.15937C4.1594 7.96412 5.4541 11.7265 8.86348 15.1359Z" fill="#0070C0"/>
</svg>
