<svg width="40" height="40" viewBox="0 0 40 40" fill="none" xmlns="http://www.w3.org/2000/svg">
<path d="M1 20C2.0464 45.3433 37.9628 45.3236 39 20C37.9604 -5.32955 2.0436 -5.33715 1 20Z" fill="#D43C89"/>
<path d="M24.9898 19.4811C30.6946 18.7663 36.3546 19.9103 36.9162 20.0351C36.8894 15.9779 35.4366 12.2511 33.0566 9.3291C32.691 9.8207 29.821 13.5115 23.4922 16.1031C24.0366 17.2019 24.5322 18.3427 24.9898 19.4811Z" fill="#B2005F"/>
<path d="M31.3535 7.44963C28.3319 4.75083 24.3563 3.11523 19.9975 3.11523C18.6159 3.12403 17.2699 3.29403 15.9863 3.59803C16.4587 4.23243 19.5695 8.48643 22.3775 13.6516C28.4743 11.364 31.0503 7.88763 31.3535 7.44963Z" fill="#B2005F"/>
<path d="M19.3314 14.691C16.497 9.63302 13.4306 5.37902 12.9762 4.75342C8.18939 7.02342 4.59739 11.4558 3.49219 16.7822C4.25859 16.791 11.3182 16.8178 19.3314 14.691Z" fill="#B2005F"/>
<path d="M21.3297 20.1351C21.5509 20.0639 21.7721 19.9931 22.0021 19.9311C21.5773 18.9643 21.1085 17.9883 20.6217 17.0391C12.1361 19.5851 3.88929 19.4787 3.14609 19.4699C2.99489 23.9819 4.68289 28.2631 7.50849 31.3843C7.89769 30.7187 12.5609 22.9739 21.3297 20.1351Z" fill="#B2005F"/>
<path d="M22.9442 22.7751C13.5862 26.0467 10.2194 32.5555 9.92578 33.1615C14.3198 36.7627 21.3042 37.7519 26.5874 35.3515C26.337 33.8887 25.3786 28.8079 23.0478 22.7407C23.0134 22.7579 22.9702 22.7667 22.9442 22.7751Z" fill="#B2005F"/>
<path d="M26.3359 21.938C28.5123 27.9448 29.3967 32.83 29.5787 33.8472C33.3071 31.3088 35.9687 27.3016 36.7143 22.6508C36.1419 22.468 31.5555 21.1032 26.3359 21.938Z" fill="#B2005F"/>
</svg>
