<svg width="23" height="22" viewBox="0 0 23 22" fill="none" xmlns="http://www.w3.org/2000/svg">
<g clip-path="url(#clip0_633_6792)">
<path fill-rule="evenodd" clip-rule="evenodd" d="M5.07453 11C5.07453 10.3014 5.19325 9.6316 5.40513 9.00338L1.69644 6.23529C0.973641 7.66969 0.566406 9.28596 0.566406 11C0.566406 12.7126 0.97314 14.3279 1.69494 15.7613L5.40162 12.9878C5.19175 12.3625 5.07453 11.6952 5.07453 11Z" fill="#FBBC05"/>
<path fill-rule="evenodd" clip-rule="evenodd" d="M11.5861 4.64445C13.1389 4.64445 14.5415 5.18222 15.6434 6.06222L18.8492 2.93333C16.8957 1.27111 14.3912 0.244446 11.5861 0.244446C7.23127 0.244446 3.48852 2.67862 1.69629 6.23529L5.40498 9.00338C6.25952 6.468 8.69541 4.64445 11.5861 4.64445Z" fill="#EB4335"/>
<path fill-rule="evenodd" clip-rule="evenodd" d="M11.5861 17.3556C8.69541 17.3556 6.25952 15.532 5.40498 12.9966L1.69629 15.7642C3.48852 19.3214 7.23127 21.7556 11.5861 21.7556C14.274 21.7556 16.8401 20.8228 18.7661 19.075L15.2457 16.4149C14.2524 17.0265 13.0017 17.3556 11.5861 17.3556Z" fill="#34A853"/>
<path fill-rule="evenodd" clip-rule="evenodd" d="M22.1049 11C22.1049 10.3644 22.0047 9.68 21.8545 9.04445H11.5859V13.2H17.4966C17.2011 14.6168 16.3966 15.706 15.2455 16.4149L18.7659 19.075C20.789 17.2397 22.1049 14.5058 22.1049 11Z" fill="#4285F4"/>
</g>
<defs>
<clipPath id="clip0_633_6792">
<rect width="22.5087" height="22" fill="white" transform="translate(0.231445)"/>
</clipPath>
</defs>
</svg>
