<svg width="127" height="132" viewBox="0 0 127 132" fill="none" xmlns="http://www.w3.org/2000/svg">
<path d="M108.5 79.5C108.5 93.2071 104.436 103.56 97.0141 110.49C89.5867 117.425 78.7252 121 65 121C63.5528 121 62.105 121.004 60.6606 121.009C48.2826 121.046 36.152 121.082 26.7835 118.375C21.5681 116.868 17.2592 114.522 14.2517 110.893C11.2492 107.27 9.5 102.314 9.5 95.5C9.5 81.8267 15.544 66.5589 25.0349 54.7072C34.5291 42.8515 47.3997 34.5 61 34.5C74.6994 34.5 86.5723 38.9355 95.0154 46.7614C103.455 54.5837 108.5 65.8226 108.5 79.5Z" stroke="#DAA21C"/>
<path d="M87.9789 108.576C76.3106 115.769 65.3652 117.742 55.5712 115.06C45.7699 112.377 37.0275 105.007 29.8253 93.323C29.066 92.091 28.3025 90.8609 27.5409 89.6336C21.014 79.1161 14.6176 68.8089 12.0063 59.4132C10.5525 54.1826 10.2881 49.2839 11.7994 44.8194C13.3081 40.3622 16.6087 36.2728 22.4096 32.697C34.0492 25.5221 50.2177 22.6556 65.2868 24.5158C80.3611 26.3767 94.2242 32.9507 101.361 44.5281C108.549 56.1899 111.004 68.6243 108.772 79.9182C106.542 91.207 99.622 101.399 87.9789 108.576Z" stroke="#DAA21C"/>
</svg>
