<svg width="40" height="40" viewBox="0 0 40 40" fill="none" xmlns="http://www.w3.org/2000/svg">
<g clip-path="url(#clip0_633_1581)">
<path fill-rule="evenodd" clip-rule="evenodd" d="M40 38.182H31.1594V25.3987C31.1594 22.0527 29.7766 19.7685 26.7357 19.7685C24.4097 19.7685 23.1162 21.3099 22.5141 22.7955C22.2883 23.3287 22.3236 24.0715 22.3236 24.8143V38.182H13.5654C13.5654 38.182 13.6783 15.5377 13.5654 13.4793H22.3236V17.3562C22.841 15.6611 25.6397 13.2418 30.1058 13.2418C35.6467 13.2418 40 16.7951 40 24.4464V38.182ZM4.70836 10.3894H4.65193C1.82973 10.3894 0 8.50104 0 6.10738C0 3.66715 1.88382 1.81836 4.76246 1.81836C7.63876 1.81836 9.40733 3.66252 9.46378 6.10042C9.46378 8.49408 7.63875 10.3894 4.70836 10.3894ZM1.00891 13.4793H8.80526V38.182H1.00891V13.4793Z" fill="#007EBB"/>
</g>
<defs>
<clipPath id="clip0_633_1581">
<rect width="40" height="40" fill="white"/>
</clipPath>
</defs>
</svg>
