<svg width="80" height="81" viewBox="0 0 80 81" fill="none" xmlns="http://www.w3.org/2000/svg">
<path d="M47.3341 48.8355C47.791 49.9863 49.0785 50.5526 50.1297 49.9685C52.7675 48.5029 55.088 46.477 56.935 44.014C59.2278 40.9563 60.7115 37.331 61.2392 33.4964C61.7669 29.6618 61.3205 25.7508 59.944 22.15C58.5674 18.5492 56.3086 15.3834 53.3906 12.9655C50.4727 10.5476 46.9968 8.96149 43.3066 8.36388C39.6164 7.76627 35.8397 8.17789 32.3499 9.55805C28.8601 10.9382 25.7781 13.2391 23.4086 16.2332C21.4929 18.654 20.0966 21.46 19.3019 24.4642C18.9905 25.6414 19.8022 26.7993 20.9805 27.0066C22.139 27.2104 23.2139 26.4156 23.5445 25.2657C24.1945 23.0043 25.2737 20.8922 26.7261 19.057C28.6217 16.6617 31.0873 14.821 33.8791 13.7168C36.671 12.6127 39.6923 12.2834 42.6445 12.7615C45.5966 13.2396 48.3774 14.5085 50.7117 16.4428C53.046 18.3771 54.8531 20.9097 55.9544 23.7904C57.0556 26.671 57.4127 29.7998 56.9906 32.8675C56.5684 35.9352 55.3815 38.8354 53.5472 41.2815C52.1431 43.1539 50.397 44.7105 48.4161 45.8668C47.4033 46.458 46.8887 47.7136 47.3341 48.8355Z" fill="#0070C0"/>
<path d="M36.1496 30.4259C36.5056 29.2545 35.8806 27.9947 34.7218 27.7442C32.2344 27.2066 29.6689 27.1301 27.1452 27.5246C23.9135 28.0297 20.8358 29.2937 18.1468 31.2202C15.4579 33.1466 13.2287 35.6846 11.6295 38.6404C10.0302 41.5963 9.10308 44.8919 8.91883 48.2759C8.73459 51.6599 9.29809 55.0429 10.5663 58.1667C11.8346 61.2904 13.7741 64.0725 16.2368 66.3006C18.6996 68.5287 21.6206 70.144 24.7769 71.0233C27.2396 71.7093 29.7949 71.933 32.3228 71.6902C33.5042 71.5767 34.2651 70.3945 34.0382 69.1873C33.8116 67.9818 32.6849 67.2105 31.503 67.2935C29.6195 67.4257 27.7228 67.2352 25.8901 66.7247C23.3651 66.0213 21.0283 64.7291 19.0581 62.9466C17.0879 61.1641 15.5363 58.9385 14.5217 56.4394C13.5071 53.9404 13.0563 51.2341 13.2037 48.5269C13.3511 45.8197 14.0928 43.1831 15.3722 40.8185C16.6516 38.4538 18.4349 36.4234 20.5861 34.8823C22.7373 33.3411 25.1995 32.3299 27.7848 31.9258C29.6605 31.6326 31.565 31.6646 33.4215 32.0155C34.5876 32.2359 35.7931 31.5989 36.1496 30.4259Z" fill="#0070C0"/>
<path d="M30.3432 49.8306C29.1591 49.849 28.2032 50.8613 28.3389 52.0814C28.6522 54.8971 29.482 57.6318 30.7905 60.1356C32.4405 63.2927 34.8026 65.9887 37.6752 67.9936C40.5477 69.9986 43.8454 71.2528 47.2868 71.6493C50.7281 72.0458 54.2109 71.5728 57.4377 70.2706C60.6645 68.9684 63.5396 66.8757 65.8175 64.1712C68.0953 61.4668 69.7083 58.2308 70.5187 54.7396C71.3291 51.2484 71.3129 47.6056 70.4714 44.1224C69.8044 41.3614 68.6346 38.7657 67.0319 36.472C66.3357 35.4756 64.9684 35.3987 64.083 36.2159C63.1978 37.0329 63.1323 38.4334 63.8041 39.4473C64.9597 41.1912 65.8097 43.1399 66.3083 45.2041C66.9815 47.9907 66.9945 50.9049 66.3462 53.6978C65.6979 56.4908 64.4075 59.0796 62.5852 61.2432C60.7629 63.4068 58.4629 65.0809 55.8814 66.1226C53.2999 67.1644 50.5137 67.5428 47.7607 67.2256C45.0076 66.9084 42.3694 65.905 40.0714 64.3011C37.7733 62.6971 35.8836 60.5403 34.5637 58.0147C33.586 56.1441 32.9424 54.1123 32.6575 52.0172C32.4918 50.799 31.5291 49.8122 30.3432 49.8306Z" fill="#0070C0"/>
<path d="M34 49C34 51.2091 32.2091 53 30 53C27.7909 53 26 51.2091 26 49C26 46.7909 27.7909 45 30 45C32.2091 45 34 46.7909 34 49ZM29.159 49C29.159 49.4645 29.5355 49.841 30 49.841C30.4645 49.841 30.841 49.4645 30.841 49C30.841 48.5355 30.4645 48.159 30 48.159C29.5355 48.159 29.159 48.5355 29.159 49Z" fill="#202020"/>
<path d="M42 31C42 33.2091 40.2091 35 38 35C35.7909 35 34 33.2091 34 31C34 28.7909 35.7909 27 38 27C40.2091 27 42 28.7909 42 31ZM37.159 31C37.159 31.4645 37.5355 31.841 38 31.841C38.4645 31.841 38.841 31.4645 38.841 31C38.841 30.5355 38.4645 30.159 38 30.159C37.5355 30.159 37.159 30.5355 37.159 31Z" fill="#202020"/>
<path d="M50 49C50 51.2091 48.2091 53 46 53C43.7909 53 42 51.2091 42 49C42 46.7909 43.7909 45 46 45C48.2091 45 50 46.7909 50 49ZM45.159 49C45.159 49.4645 45.5355 49.841 46 49.841C46.4645 49.841 46.841 49.4645 46.841 49C46.841 48.5355 46.4645 48.159 46 48.159C45.5355 48.159 45.159 48.5355 45.159 49Z" fill="#202020"/>
</svg>
