<svg width="40" height="40" viewBox="0 0 40 40" fill="none" xmlns="http://www.w3.org/2000/svg">
<g clip-path="url(#clip0_633_1577)">
<path fill-rule="evenodd" clip-rule="evenodd" d="M40 7.27957C38.5303 7.94889 36.9478 8.40152 35.2879 8.60375C36.983 7.56367 38.2837 5.91446 38.8965 3.94985C37.3094 4.91289 35.5556 5.6135 33.682 5.98908C32.1888 4.35432 30.0546 3.3335 27.6927 3.3335C23.1637 3.3335 19.4893 7.1014 19.4893 11.7481C19.4893 12.4078 19.5598 13.0482 19.7006 13.6645C12.8802 13.313 6.83453 9.96645 2.78453 4.86955C2.07783 6.11669 1.67399 7.56367 1.67399 9.10454C1.67399 12.0226 3.12262 14.5987 5.32488 16.1083C3.98193 16.0673 2.71409 15.6845 1.60591 15.0586V15.1621C1.60591 19.2406 4.43505 22.6425 8.19158 23.4129C7.50366 23.6104 6.77819 23.7091 6.02923 23.7091C5.50097 23.7091 4.98444 23.6585 4.48435 23.5598C5.52914 26.9016 8.55783 29.3357 12.15 29.4007C9.34201 31.659 5.80148 33.0049 1.95808 33.0049C1.296 33.0049 0.640957 32.9663 0 32.8893C3.63209 35.2728 7.94741 36.6668 12.5797 36.6668C27.6762 36.6668 35.9289 23.8463 35.9289 12.7256C35.9289 12.3596 35.9218 11.9937 35.9077 11.6349C37.5113 10.448 38.9036 8.9673 40 7.27957Z" fill="#00AAEC"/>
</g>
<defs>
<clipPath id="clip0_633_1577">
<rect width="40" height="40" fill="white"/>
</clipPath>
</defs>
</svg>
